

<svg id="signature" xmlns="http://www.w3.org/2000/svg"
     width="8.06944in" height="0.986111in"
     viewBox="0 0 581 71">
  <path id="Selection"
        fill="none" stroke="white" stroke-width="5"
        d="M 177.05,5.76
           C 185.72,5.99 184.73,14.12 178.96,14.72
             173.44,15.29 170.22,8.35 177.05,5.76 Z
           M 437.05,5.76
           C 445.72,5.99 444.73,14.12 438.96,14.72
             433.44,15.29 430.22,8.35 437.05,5.76 Z
           M 222.00,7.00
           C 222.00,7.00 237.00,7.00 237.00,7.00
             237.00,7.00 237.00,52.00 237.00,52.00
             237.00,54.27 236.79,57.75 238.02,59.70
             240.40,63.46 242.91,60.68 244.00,67.00
             244.00,67.00 230.00,67.00 230.00,67.00
             230.00,67.00 230.00,61.00 230.00,61.00
             226.67,63.81 224.30,65.83 220.00,67.12
             216.33,68.12 213.69,67.98 210.00,67.12
             197.86,64.56 195.88,54.77 196.00,44.00
             196.13,33.25 200.97,25.65 212.00,23.65
             214.99,23.07 217.01,22.97 220.00,23.65
             224.26,24.70 225.82,26.19 229.00,29.00
             229.00,20.89 231.46,13.04 222.00,11.00
             222.00,11.00 222.00,7.00 222.00,7.00 Z
           M 9.00,67.00
           C 10.29,59.51 15.01,64.09 16.89,57.94
             16.89,57.94 16.89,46.00 16.89,46.00
             16.89,46.00 16.89,24.00 16.89,24.00
             16.95,21.61 17.00,19.27 15.40,17.31
             13.59,15.08 8.48,14.22 10.17,11.54
             11.19,9.92 14.33,10.04 16.00,10.00
             16.00,10.00 28.00,10.00 28.00,10.00
             36.74,10.01 47.91,10.98 54.98,16.53
             66.95,25.92 67.11,49.62 55.91,59.67
             44.81,69.64 23.26,67.00 9.00,67.00 Z
           M 272.00,67.00
           C 273.29,59.51 278.01,64.09 279.89,57.94
             279.89,57.94 279.89,46.00 279.89,46.00
             279.89,46.00 279.89,24.00 279.89,24.00
             279.95,21.61 280.00,19.27 278.40,17.31
             276.59,15.08 271.48,14.22 273.17,11.54
             274.36,9.65 279.02,10.00 281.00,10.00
             288.02,9.99 303.03,9.34 309.00,12.31
             315.79,15.69 318.40,25.61 314.15,31.81
             312.41,34.34 309.61,35.60 307.00,37.00
             310.46,38.64 313.94,39.89 316.30,43.10
             321.81,50.60 318.34,61.27 310.00,65.03
             302.93,68.22 280.80,67.00 272.00,67.00 Z
           M 462.00,12.00
           C 462.00,12.00 469.00,12.00 469.00,12.00
             469.00,14.51 468.66,19.65 470.02,21.69
             472.15,24.88 479.50,24.00 483.00,24.00
             481.76,31.05 474.93,29.00 469.09,29.00
             469.09,29.00 469.09,52.00 469.09,52.00
             469.53,55.27 470.40,59.12 473.22,61.15
             476.31,63.36 479.58,62.58 483.00,62.00
             483.00,62.00 484.00,67.00 484.00,67.00
             478.35,67.75 471.19,69.08 466.21,65.28
             461.83,61.94 462.01,56.93 462.00,52.00
             462.00,52.00 462.00,29.00 462.00,29.00
             462.00,29.00 453.00,28.00 453.00,28.00
             455.02,22.24 457.40,25.29 460.40,21.69
             462.40,19.28 462.00,14.98 462.00,12.00 Z
           M 25.00,62.00
           C 32.51,62.00 40.52,63.01 46.99,58.35
             58.56,50.03 58.71,26.89 46.99,18.65
             40.62,14.17 32.38,15.00 25.00,15.00
             25.00,15.00 25.00,62.00 25.00,62.00 Z
           M 288.00,35.00
           C 292.52,35.00 300.15,35.65 303.85,33.15
             309.25,29.56 309.60,19.81 303.85,16.45
             300.29,14.41 292.23,15.00 288.00,15.00
             288.00,15.00 288.00,35.00 288.00,35.00 Z
           M 76.00,37.00
           C 76.00,34.04 75.47,28.93 77.60,26.70
             81.32,22.80 98.88,21.21 104.49,27.39
             108.39,31.69 106.92,46.94 107.00,53.00
             107.03,55.16 106.98,57.82 108.17,59.70
             110.57,63.49 112.93,60.76 114.00,67.00
             107.77,67.00 101.62,69.07 100.00,62.00
             95.11,66.08 90.66,68.76 84.00,67.67
             75.29,66.24 70.04,57.96 75.09,50.18
             78.25,45.30 85.64,43.38 91.00,42.21
             93.83,41.59 98.21,41.19 99.11,37.86
             101.06,30.66 90.92,25.12 85.31,29.74
             82.96,31.68 83.10,34.25 83.00,37.00
             83.00,37.00 76.00,37.00 76.00,37.00 Z
           M 367.00,57.00
           C 362.65,69.65 344.63,70.64 335.17,63.20
             328.76,58.16 327.34,49.68 328.17,42.00
             330.22,23.12 350.39,19.36 359.90,26.65
             365.95,31.29 366.94,39.93 367.00,47.00
             367.00,47.00 336.00,47.00 336.00,47.00
             336.73,55.05 342.36,65.10 352.00,62.34
             358.96,60.34 358.26,55.18 367.00,57.00 Z
           M 388.00,30.00
           C 390.75,27.54 392.46,25.91 396.00,24.56
             398.03,23.79 400.82,23.18 403.00,23.18
             420.03,23.18 415.79,42.58 416.00,54.00
             416.11,59.99 416.99,61.71 423.00,63.00
             423.00,63.00 423.00,67.00 423.00,67.00
             423.00,67.00 402.00,67.00 402.00,67.00
             402.00,67.00 402.00,63.00 402.00,63.00
             402.00,63.00 408.00,63.00 408.00,63.00
             408.00,63.00 408.00,39.00 408.00,39.00
             407.96,36.36 407.99,33.47 406.26,31.28
             402.05,25.95 393.55,30.64 390.60,35.04
             388.87,37.62 389.02,40.05 389.00,43.00
             389.00,43.00 389.00,63.00 389.00,63.00
             392.91,63.33 393.66,63.17 395.00,67.00
             395.00,67.00 374.00,67.00 374.00,67.00
             374.00,67.00 374.00,63.00 374.00,63.00
             383.63,60.90 381.00,51.00 381.00,43.00
             381.00,40.54 381.23,35.14 380.40,33.05
             378.41,28.01 375.13,30.58 374.00,24.00
             385.12,24.00 387.40,22.83 388.00,30.00 Z
           M 529.00,59.00
           C 524.13,64.10 520.36,67.19 513.00,67.81
             494.18,69.40 485.28,50.94 491.76,35.00
             496.86,22.47 514.10,19.61 522.67,27.53
             527.73,32.20 528.70,40.46 529.00,47.00
             529.00,47.00 498.00,47.00 498.00,47.00
             498.42,55.42 504.18,65.29 514.00,62.35
             520.79,60.31 522.81,53.01 529.00,59.00 Z
           M 115.00,24.00
           C 115.00,24.00 136.00,24.00 136.00,24.00
             136.00,24.00 136.00,28.00 136.00,28.00
             136.00,28.00 129.00,29.00 129.00,29.00
             129.00,29.00 140.00,59.00 140.00,59.00
             140.00,59.00 151.00,29.00 151.00,29.00
             151.00,29.00 144.00,28.00 144.00,28.00
             144.00,28.00 144.00,24.00 144.00,24.00
             144.00,24.00 162.41,25.02 162.41,25.02
             162.41,25.02 164.00,28.00 164.00,28.00
             161.55,28.84 160.26,29.20 158.42,31.22
             155.72,34.18 149.84,51.19 148.05,56.00
             146.06,61.35 145.31,67.95 138.05,66.85
             133.11,66.10 131.77,59.06 130.34,55.00
             128.69,50.28 123.31,34.21 120.58,31.22
             118.74,29.20 117.45,28.84 115.00,28.00
             115.00,28.00 115.00,24.00 115.00,24.00 Z
           M 168.00,24.00
           C 168.00,24.00 183.00,24.00 183.00,24.00
             183.00,24.00 183.00,54.00 183.00,54.00
             183.10,59.41 183.57,61.35 189.00,63.00
             189.00,63.00 189.00,67.00 189.00,67.00
             189.00,67.00 168.00,67.00 168.00,67.00
             168.00,67.00 168.00,63.00 168.00,63.00
             170.12,62.54 171.86,62.34 173.40,60.57
             175.89,57.70 175.00,46.11 175.00,42.00
             175.00,39.70 175.23,34.11 174.40,32.22
             172.47,27.84 169.15,30.67 168.00,24.00 Z
           M 428.00,24.00
           C 428.00,24.00 443.00,24.00 443.00,24.00
             443.00,24.00 443.00,54.00 443.00,54.00
             443.10,59.41 443.57,61.35 449.00,63.00
             449.00,63.00 449.00,67.00 449.00,67.00
             449.00,67.00 428.00,67.00 428.00,67.00
             428.00,67.00 428.00,63.00 428.00,63.00
             430.12,62.54 431.86,62.34 433.40,60.57
             435.89,57.70 435.00,46.11 435.00,42.00
             435.00,39.70 435.23,34.11 434.40,32.22
             432.47,27.84 429.15,30.67 428.00,24.00 Z
           M 536.00,24.00
           C 536.00,24.00 570.00,24.00 570.00,24.00
             569.73,31.80 566.30,34.11 561.60,40.00
             561.60,40.00 544.00,62.00 544.00,62.00
             559.02,62.00 564.69,64.15 565.00,52.00
             565.00,52.00 571.00,52.00 571.00,52.00
             571.00,52.00 571.00,67.00 571.00,67.00
             571.00,67.00 535.00,67.00 535.00,67.00
             535.46,59.24 538.98,56.89 543.58,51.00
             543.58,51.00 561.00,29.00 561.00,29.00
             558.07,29.00 549.32,28.69 547.06,29.60
             542.69,31.35 543.48,35.36 541.27,36.99
             534.78,41.78 536.00,26.30 536.00,24.00 Z
           M 214.00,28.41
           C 211.20,29.30 209.62,29.83 207.65,32.21
             202.04,38.98 201.33,61.13 214.00,62.77
             220.09,63.56 226.96,58.89 228.78,53.00
             229.14,50.92 229.03,45.38 228.78,43.00
             228.87,33.54 223.96,27.51 214.00,28.41 Z
           M 359.00,43.00
           C 358.68,39.25 358.03,34.18 355.49,31.23
             350.82,25.81 337.54,26.02 336.00,43.00
             336.00,43.00 359.00,43.00 359.00,43.00 Z
           M 521.00,42.00
           C 520.28,38.19 519.61,33.24 516.61,30.51
             510.94,25.36 498.74,28.02 498.00,43.00
             498.00,43.00 521.00,42.00 521.00,42.00 Z
           M 288.00,62.00
           C 292.10,62.00 301.65,62.59 304.96,60.83
             312.19,56.97 312.19,45.03 304.96,41.17
             301.65,39.41 292.10,40.00 288.00,40.00
             288.00,40.00 288.00,62.00 288.00,62.00 Z
           M 99.22,45.00
           C 99.22,45.00 89.00,47.56 89.00,47.56
             87.25,48.23 85.63,49.07 84.28,50.39
             75.74,58.72 87.84,68.62 96.44,58.79
             97.86,57.18 98.91,55.07 99.22,53.00
             100.25,49.87 99.84,48.00 99.22,45.00 Z" />
</svg>
